<svg width="54" height="54" viewBox="0 0 54 54" fill="none" xmlns="http://www.w3.org/2000/svg">
<path d="M18.5625 45.5625C19.4945 45.5625 20.25 44.807 20.25 43.875C20.25 42.943 19.4945 42.1875 18.5625 42.1875C17.6305 42.1875 16.875 42.943 16.875 43.875C16.875 44.807 17.6305 45.5625 18.5625 45.5625Z" stroke="#D97706" stroke-width="2" stroke-linecap="round" stroke-linejoin="round"/>
<path d="M42.1875 45.5625C43.1195 45.5625 43.875 44.807 43.875 43.875C43.875 42.943 43.1195 42.1875 42.1875 42.1875C41.2555 42.1875 40.5 42.943 40.5 43.875C40.5 44.807 41.2555 45.5625 42.1875 45.5625Z" stroke="#D97706" stroke-width="2" stroke-linecap="round" stroke-linejoin="round"/>
<path d="M5.0625 8.4375H11.8125L16.875 37.125H43.875" stroke="#D97706" stroke-width="2" stroke-linecap="round" stroke-linejoin="round"/>
<path d="M16.875 30.375H43.1831C43.3783 30.3751 43.5674 30.3076 43.7184 30.184C43.8693 30.0603 43.9728 29.8882 44.0111 29.6968L47.0486 14.5093C47.0731 14.3869 47.0701 14.2605 47.0398 14.1393C47.0096 14.0181 46.9528 13.9052 46.8736 13.8086C46.7944 13.7121 46.6947 13.6343 46.5818 13.5809C46.4689 13.5276 46.3455 13.4999 46.2206 13.5H13.5" stroke="#D97706" stroke-width="2" stroke-linecap="round" stroke-linejoin="round"/>
</svg>
