<svg width="32" height="32" viewBox="0 0 32 32" fill="none" xmlns="http://www.w3.org/2000/svg">
<path fill-rule="evenodd" clip-rule="evenodd" d="M30 16.0844C30 8.35313 23.7312 2.08438 16 2.08438C8.26875 2.08438 2 8.35313 2 16.0844C2 23.0719 7.11875 28.8637 13.8125 29.915V20.1325H10.2569V16.0844H13.8125V13C13.8125 9.49188 15.9031 7.5525 19.1006 7.5525C20.6325 7.5525 22.235 7.82625 22.235 7.82625V11.2719H20.4688C18.7306 11.2719 18.1869 12.3506 18.1869 13.4594V16.0844H22.0694L21.4494 20.1325H18.1875V29.9162C24.8812 28.8656 30 23.0737 30 16.0844V16.0844Z" fill="#888888"/>
</svg>
