<svg width="55" height="54" viewBox="0 0 55 54" fill="none" xmlns="http://www.w3.org/2000/svg">
<path d="M37.8125 13.5C34.3471 13.1952 30.9375 15.1875 27.5 15.1875C24.0625 15.1875 20.6519 13.1836 17.1875 13.5C10.3125 14.1328 6.875 20.25 6.875 30.375C6.875 38.8125 13.75 50.625 18.8203 50.625C23.8906 50.625 24.3998 48.0938 27.5 48.0938C30.6002 48.0938 31.1083 50.625 36.1797 50.625C41.2511 50.625 48.125 38.8125 48.125 30.375C48.125 20.25 45.0098 14.1328 37.8125 13.5Z" stroke="#D97706" stroke-width="2" stroke-miterlimit="10"/>
<path d="M34.7961 8.76866C32.5402 10.9835 29.8912 11.6163 28.4775 11.8051C28.3483 11.8234 28.2165 11.8125 28.0922 11.7733C27.9678 11.7341 27.8542 11.6676 27.76 11.5789C27.6658 11.4901 27.5934 11.3814 27.5483 11.2611C27.5033 11.1408 27.4867 11.0119 27.5 10.8844C27.755 8.51191 28.8413 6.30005 30.5733 4.62691C32.9366 2.30659 35.5147 1.7898 36.8811 1.6896C37.0087 1.67817 37.1373 1.69489 37.2574 1.73852C37.3775 1.78215 37.4862 1.8516 37.5755 1.94178C37.6648 2.03196 37.7324 2.1406 37.7734 2.25974C37.8144 2.37888 37.8278 2.50552 37.8125 2.63038C37.5428 4.95246 36.4795 7.11625 34.7961 8.76866V8.76866Z" fill="#D97706"/>
<path d="M23.2031 37.125C24.627 37.125 25.7812 34.8584 25.7812 32.0625C25.7812 29.2666 24.627 27 23.2031 27C21.7793 27 20.625 29.2666 20.625 32.0625C20.625 34.8584 21.7793 37.125 23.2031 37.125Z" fill="#D97706"/>
<path d="M31.7969 37.125C33.2207 37.125 34.375 34.8584 34.375 32.0625C34.375 29.2666 33.2207 27 31.7969 27C30.373 27 29.2188 29.2666 29.2188 32.0625C29.2188 34.8584 30.373 37.125 31.7969 37.125Z" fill="#D97706"/>
</svg>
