<svg width="32" height="32" viewBox="0 0 32 32" fill="none" xmlns="http://www.w3.org/2000/svg">
<path d="M16 16C17.3845 16 18.7378 15.5895 19.889 14.8203C21.0401 14.0511 21.9373 12.9579 22.4672 11.6788C22.997 10.3997 23.1356 8.99224 22.8655 7.63437C22.5954 6.2765 21.9287 5.02922 20.9497 4.05026C19.9708 3.07129 18.7235 2.4046 17.3656 2.13451C16.0078 1.86441 14.6003 2.00303 13.3212 2.53285C12.0421 3.06266 10.9489 3.95987 10.1797 5.11101C9.41054 6.26216 9 7.61553 9 9C9 10.8565 9.7375 12.637 11.0503 13.9497C12.363 15.2625 14.1435 16 16 16ZM16 18C11.6613 18 3 20.68 3 26V30H29V26C29 20.68 20.3387 18 16 18Z" fill="#D97706"/>
</svg>
