<svg width="54" height="54" viewBox="0 0 54 54" fill="none" xmlns="http://www.w3.org/2000/svg">
<path d="M27 24.4688V16.0312" stroke="#D97706" stroke-width="2" stroke-linecap="round" stroke-linejoin="round"/>
<path d="M13.9219 13.9219L12.6562 12.6562M27 9.28125V7.59375V9.28125Z" stroke="#D97706" stroke-width="2" stroke-linecap="round" stroke-linejoin="round"/>
<path d="M27 32.0625C28.864 32.0625 30.375 30.5515 30.375 28.6875C30.375 26.8235 28.864 25.3125 27 25.3125C25.136 25.3125 23.625 26.8235 23.625 28.6875C23.625 30.5515 25.136 32.0625 27 32.0625Z" stroke="#D97706" stroke-width="2" stroke-miterlimit="10"/>
<path d="M27 10.125C23.3287 10.125 19.7398 11.2137 16.6872 13.2533C13.6346 15.293 11.2554 18.1921 9.85049 21.5839C8.44554 24.9758 8.07794 28.7081 8.79418 32.3089C9.51042 35.9096 11.2783 39.2172 13.8743 41.8132C16.4704 44.4092 19.7779 46.1771 23.3786 46.8933C26.9794 47.6096 30.7117 47.242 34.1036 45.837C37.4954 44.4321 40.3945 42.0529 42.4342 39.0003C44.4738 35.9477 45.5625 32.3588 45.5625 28.6875C45.5625 23.7644 43.6068 19.043 40.1257 15.5618C36.6445 12.0807 31.9231 10.125 27 10.125Z" stroke="#D97706" stroke-width="2" stroke-miterlimit="10"/>
</svg>
